<?xml version="1.0" encoding="utf-8"?>
<!-- Generator: Adobe Illustrator 26.3.1, SVG Export Plug-In . SVG Version: 6.00 Build 0)  -->
<svg version="1.1" id="Layer_1" xmlns="http://www.w3.org/2000/svg" xmlns:xlink="http://www.w3.org/1999/xlink" x="0px" y="0px"
	 viewBox="0 0 310 310" style="enable-background:new 0 0 310 310;" xml:space="preserve">
<style type="text/css">
	.st0{fill:#FFFFFF;stroke:#FFFFFF;stroke-miterlimit:10;}
</style>
<g id="XMLID_834_">
	<path id="XMLID_835_" class="st0" d="M81.7,165.11h33.98V305c0,2.76,2.24,5,5,5h57.62c2.76,0,5-2.24,5-5V165.76h39.06
		c2.54,0,4.68-1.91,4.97-4.43l5.93-51.5c0.16-1.42-0.29-2.84-1.23-3.9c-0.95-1.06-2.31-1.67-3.73-1.67h-45V71.98
		c0-9.73,5.24-14.67,15.58-14.67c1.47,0,29.42,0,29.42,0c2.76,0,5-2.24,5-5V5.04c0-2.76-2.24-5-5-5h-40.54
		C187.47,0.02,186.83,0,185.9,0c-7.04,0-31.49,1.38-50.8,19.15c-21.4,19.69-18.43,43.27-17.72,47.36v37.75H81.7c-2.76,0-5,2.24-5,5
		v50.84C76.7,162.87,78.94,165.11,81.7,165.11z"/>
</g>
</svg>
